<mxfile host="app.diagrams.net" modified="2023-11-20T00:48:08.417Z" agent="Mozilla/5.0 (Windows NT 10.0; Win64; x64) AppleWebKit/537.36 (KHTML, like Gecko) Chrome/119.0.0.0 Safari/537.36" version="22.1.3" etag="0xfGtixPzLebPXgnT9D3" type="github">
  <diagram name="PÃ¡gina-1" id="y6LIO0IH6V4Nr0DL0mnj">
    <mxGraphModel>
      <root>
        <mxCell id="0" />
        <mxCell id="1" parent="0" />
      </root>
    </mxGraphModel>
  </diagram>
</mxfile>
